<?xml version="1.0" encoding="utf-8"?>
<!-- Generator: Adobe Illustrator 18.0.0, SVG Export Plug-In . SVG Version: 6.00 Build 0)  -->
<!DOCTYPE svg PUBLIC "-//W3C//DTD SVG 1.1//EN" "http://www.w3.org/Graphics/SVG/1.1/DTD/svg11.dtd">
<svg version="1.1" id="Layer_1" xmlns="http://www.w3.org/2000/svg" xmlns:xlink="http://www.w3.org/1999/xlink" x="0px" y="0px"
	 width="351.5px" height="284.9px" viewBox="80.3 109.5 351.5 284.9" enable-background="new 80.3 109.5 351.5 284.9"
	 xml:space="preserve">
<g>
	<path fill="#C52C27" d="M147,362l0.1-24.2c15.1,0,20.7-0.8,23.4,17.8h1.6V335h-41.3v2.9h7.2V391H130v2.8h42.6v-21.8h-2.1
		c-2.1,16.4-6.3,19-18,19H147v-25.8h3.2c5.2,0.1,8.2,3.2,9.3,12.2h1.9v-26.8c-0.1,0.1-1.9,0-1.9,0c0,0.1-0.4,11.5-9.5,11.3L147,362
		L147,362z"/>
	<path fill="#C52C27" d="M130.1,363.1h-23.3v2.6h8v19.2c-1.3,4.9-8.5,6.9-10.6,6.9c-14.9,0-13.8-21.8-13.8-27.6
		c0-5.4-0.5-27.6,13.8-27.6c10.1,0,15.4,10,17.6,19.1h1.6c0-3.7,0.1-21.5,0-21.4c0.1-0.1-6.9,5-6.9,4.9c0.2-0.1-3.2-4.7-12.2-4.7
		c-17.6,0-24,17.5-24,29.7c0.1,11.2,5.2,30.2,24,30.2c5.9,0,10-3,12.2-6.4c0-0.1,7.4,5.8,7.4,5.8v-28.2h6.3V363.1z"/>
	<path fill="#C52C27" d="M402.3,372.1c-2.1,16.4-6.3,18.9-18,18.9h-0.7v-53.2h7.5V335h-24.4v2.9h7.4V391h-5.9l-21.7-57.7h-3.2
		c0.1-0.1-18.1,52.3-18.1,52.5c0.1-0.2-1.3,4.5-4.4,5c-2.7,0.1-2.6-1.3-2.6-1.8v-10c0-2.7-0.2-8.6-3-11.4c-3.1-3.1-8.3-3.3-8.2-3.5
		c0,0,13.4-2.7,13.4-15.4c0-8.9-6.2-13.3-16.5-13.7h-29.4v2.9h7.5V391h-7.5v2.9h24.1V391H291v-25.6h10c17.4,1.5-3,28.5,19.8,28.4
		h14.4V391c-0.8,0-6.1,0.1-6.4-3.5c-0.2-2.7,3.5-12.2,3.5-12.2h19.5c0-0.1,6.1,15.7,6.1,15.7h-6.8v2.9h53.3v-21.8L402.3,372.1
		L402.3,372.1z M300.6,362.5h-9.5v-24.6h12.2c7.2,1.1,7.5,9.4,7.5,12C310.8,356.2,308.1,362.5,300.6,362.5 M333.6,372.7l8.5-25.4
		l9.1,25.4H333.6z"/>
	<path fill="#C52C27" d="M245.5,337.8c15.1,0,20.7-0.7,23.4,17.9h1.6V335h-60.2v2.8h1.6c2.1,0,7.2,0.2,7.5,4.6l0,0v33.9L191.2,335
		h-15.3v2.8h2.6c3,0,7.2,0.1,7.5,4.6v43.5c0,4.3-6.3,5.8-9,5.8h-0.1v2.1h20.7v-2.1c-2.7,0-9.1-1.6-9.1-5.8l0.1-38.3
		c11.1,15.9,32.2,46.3,32.4,46.3h1v-51.4c0.3-4.4,5.4-4.6,7.5-4.6h6.9v53.3h-7.9v2.8h42.6v-21.8h-2.1c-2.1,16.4-6.3,19-18,19h-5.4
		v-25.8h3.2c5.2,0.1,8.2,3.2,9.3,12.2h1.9v-26.8c-0.1,0.1-1.9,0-1.9,0c0,0.1-0.4,11.5-9.5,11.3h-2.9L245.5,337.8L245.5,337.8z"/>
	<polygon fill="#C52C27" points="431.2,337.8 431.2,335 407.2,335 407.2,337.8 414.7,337.8 414.7,391 407.2,391 407.2,393.9 
		431.2,393.9 431.2,391 423.6,391 423.6,337.8 	"/>
	<path fill="#C52C27" d="M367.7,298.7l7.4-2.8l0.1-0.1c10.6-4.4,12-7.1,11.6-14.1v-28.4c8,20.4,15.6,34.7,31.2,34.7
		c2.1,0,4.4-0.2,6.8-0.8l6.1-1.4l-4.2-4.6c-2.7-2.9-4-5.2-5.5-7.8c-0.6-1.1-1.3-2.2-2-3.5c-3.6-5.9-12.3-7.9-19.3-4.7
		c-3.2-6.3-6.4-14.5-10.3-24.8l-0.9-1.9c-0.7-1.5-1.3-3-2-4.6v-0.2l0,0c-2.4-5.4-4.9-10.8-8-15.8c-2.8-4.6-5.6-8.5-8.6-12.1
		c-8.1-9.5-18.9-15.4-31.9-17.6c-9.1-1.5-15.4-1.8-23.5-2.2c-1.7-0.1-3.4-0.2-5.3-0.2c-3.6-0.2-11.3-0.8-18.5-1.4
		c-4.9-0.4-10-0.8-14-1.1c0.2-1.1,0.4-2.3,0.4-3.5c0-1.6-0.1-3-0.4-4.4h52c13.4,0,23.1-6,28.9-17.6c13.3-0.1,23-6.1,28.6-17.9h1.9
		c13.9,0,23.8-6.3,29.5-18.9l2.4-5.2H243.8c-11.6,0-21.5,7.5-25.1,19.2l-0.1,0.4c-3-8.3-8.5-15.4-15.5-19.6
		c-9.8-5.8-20.9-7.8-29.7-5.2c-2.9,0.9-5.8,2.2-8.2,3.7c-2,1.3-4.9,3.5-6.9,6.1c-2.3,2.9-4.4,6.4-6,9.7c-1,0.9-1.8,1.7-2.4,2.5
		l-2.1,4l-0.1,0.2c-2.5,5.7-5.6,9.7-8,12.5c-2.4,2.8-2.5,5.4-2.2,7.1c0.4,1.9,1.3,3.4,2.4,4.6l-0.1,0.1c-0.7,1.2-1.1,2.6-1.1,4
		c0,4.6,4.1,8.1,9,8.1c3.6,0,6.6-1.7,9.7-3.8c1.3-0.9,4.6-3.1,5.7-3.2c1.4,0,2.7,1.3,2.7,2.7c0,3.8-4.9,5.8-8.5,6.1l-7.2,0.8
		c-5.2,0.5-7.6,3.2-7.6,5.7s1.2,3.8,2,4.6l0.5,0.5l1.8,1.6l-7.6,12.2c-5.4-5-11.7-8-17.3-8.2c-3.6-0.1-6.8,1-9.1,3.2
		c-0.7,0.6-1.3,1.3-1.8,2.1H111c-6,0-10.8,3.2-13.2,6.8c-2.6,4-1.6,10.8,1.6,16l-19.2,5V317h351.4v-18.2L367.7,298.7L367.7,298.7z
		 M413.1,273.7c0.7,1.2,1.3,2.2,1.9,3.2c0.7,1.3,1.4,2.5,2.3,3.8c-5.5-0.4-9.7-3.4-13.6-9.2C407.2,270.3,411.5,271.2,413.1,273.7
		 M337,195.3c11.3,1.9,20.6,7,27.6,15.1c1.5,1.8,2.9,3.6,4.3,5.7c-19-2.5-25.7-5.3-36.4-21.5C334,194.8,335.5,195,337,195.3
		 M328.8,168h-35.8c3-2.7,5.7-6.1,7.7-10.3h48.6C344.8,164.7,338.1,168,328.8,168 M357.3,150.4h-35.8c3.2-2.8,5.8-6.4,7.9-10.7h48.7
		C373.5,147,366.8,150.4,357.3,150.4 M359.7,123h48.5c-4.6,6.4-11,9.4-19.9,9.4h-35.8C355.3,130,357.7,126.8,359.7,123 M163.9,124.9
		c1.2-1.5,3-3.1,5.2-4.6c1.8-1.2,4-2.2,6.2-2.8c3.5-1,7.5-1.1,11.7-0.3l-12.8,7.9c-1.6-0.2-3.2-0.2-4.7-0.2c-2.2,0-4.2,0.2-6,0.5
		C163.6,125.2,163.7,125,163.9,124.9 M148.9,181.7c0.1-0.5,0.5-0.9,1-0.9l6.3,0.2c7.7-0.2,15.4-3.4,16.3-11.4
		c0-5.4-3.8-10.6-9.2-10.6c-2.9,0-6.1,2-9.8,4.4c-2.4,1.6-4.3,2.8-5.7,2.8c-1,0-1.8-0.7-1.8-1.2c0-0.1,0-0.2,0.1-0.2l4-5.4l-3.5-2.3
		c-0.7-0.5-1.9-1.4-2-2.1c-0.1-0.3,0.4-0.9,0.5-1.1c1.4-1.6,3.1-3.7,4.7-6.2c1-1.4,1.6-2.2,3.3-2.2s3,1.3,3,3c0,1.1,1.2,1.9,2.7,1.9
		s2.2-1,3.1-1.9c0,0,3.6-3.3,1.7-4.8c-2.1-1.8-10.8,1.8-8.4-6.1l0.6-1.2c0.9-1.2,5-4.3,13.6-4.3c1.6,0,3.3,0.1,5,0.4l1.3,0.2
		l18.1-11.3c0.2,0.4,0.2,0.7,0.2,0.7v0.1c1,5.5-2.5,12-8,15.2l-2.2,1.3l1.4,8.1c-4.7,1.4-7.9,5.2-7.9,9.7c0,1.5,0.4,3.3,0.8,5.7
		c0.5,2.6,1.1,5.5,1.2,8.5c0,8.5-11.7,14.1-21.7,13.8h-0.2c-0.4,0-6.8-0.5-8.3-1.8C149,182.5,148.8,182,148.9,181.7 M103.9,208.4
		c1.5-2.2,4.7-4.1,8.8-3.3l3.1,0.5l1-3c0.2-0.8,0.6-1.4,1.1-1.8c0.9-0.9,2.2-1.2,3.8-1.2c4.4,0.1,9.9,3.2,14.4,8
		c1.6,1.8,3,3.8,4.3,5.8c0.2,0.4,0.5,0.9,0.8,1.3c0.4,0.5,0.7,1,0.7,1.2c0.2,0.3,2.4,3.6,2.2,3.8c1.5-2.1,3-4.3,4.5-6.3
		c0.1-0.1,0-0.2-0.1-0.5c-0.4-0.7-1.2-2-1.6-2.7c-0.1-0.2-0.2-0.4-0.4-0.5v-0.1c-0.1-0.1-0.2-0.4-0.5-0.8c-0.5-0.8-1.2-1.9-1.5-2.6
		l9.5-15.1c2.4,0.5,4.4,0.5,5.4,0.5h0.2c13.4,0,27.2-7.7,27.2-20.6v-0.3c-0.2-3.5-0.9-6.9-1.3-9.5c-0.4-1.8-0.7-3.5-0.7-4.3
		c0-1.4,2-3,4.9-3h4.3l-1.9-11.2c6.1-4.5,9.9-11.8,9.7-18.7c6.6,5,11.2,13.7,12,23c0.2,2.7-0.3,6.4-1.2,10.5l-0.5,1.6h0.1
		c-1.6,6.4-3.8,13.1-5,16.3l-1.1,2.9l2.7,1.5c4.9,2.7,7.9,4.8,7.9,11.2c0,7.4-6.6,13-13.1,14.2l-8.8,1.6l7.4,4.9
		c2.4,1.6,3.8,4.2,3.8,6.9c0,4.6-4,8.4-8.8,8.4h-2.8l-0.8,2.6c-2.7,8.9-5.7,13.2-15.2,14.1c0.4-2.7,0.7-5.3,0.7-8.9
		c0-0.9-0.1-3.3-0.1-4.1l-0.4-8.3l-5.8,5.9c-1.9,2-5.5,3.6-9.3,4.4v-7.2l-41.6-10.8l-14.8,3.8C103.8,215,103.1,209.6,103.9,208.4
		 M92,298.7l29.9-7.8l29.9,7.8H92z M156.2,292.3l-34.3-8.9l-34.3,8.9v-61.4l34.3-8.9l34.3,8.9V292.3z M172.2,280.4
		c-3.1,4.4-3.5,10.6-1.2,18.3h-7.5v-58.7c2.7-0.4,5.6-1.2,8.3-2.4c-0.1,2.6-0.5,4.6-1,7.3c-0.1,0.6-0.2,1.3-0.4,2l-0.7,4.3h4.3
		c6.4,0,11.3-1,15-2.9v24.5c0,0.6-0.5,1.2-1.1,1.2h-1.1C180.4,273.7,175.1,276.2,172.2,280.4 M251.2,281.9c-2.6,3-5.2,8.3-3.5,16.7
		h-44.5c4.8-0.5,8.3-1.6,10.6-4.1c2.9-3,3.2-7.2,3.1-10.2c0.1-0.2,0.6-1.3,2.7-2.3l3.8-1.8l-2.3-3.5c-3.8-5.8-2.1-18.6-0.7-25.6h0.4
		c15.1,0,24.9-3.2,35.2-6.4c2.7-0.9,5.5-1.8,8.4-2.6l0.1-0.1c0.1,0,3.1-1,7.2-1.9l14.5,24l0.1,0.2c1.5,2.1,1.6,3.4-1,6.5l-7.3,7.8
		l-11.9-2.2h-0.1C260.5,275.7,254.8,277.8,251.2,281.9 M255.1,298.7c-1.3-5.2-0.8-9.2,1.6-11.9c2.3-2.6,5.7-3.3,8.1-3l13.8,2.6
		l0.4,0.1h1.9l9.8-10.5l0.1-0.1c1.6-1.9,6.8-7.8,1.6-15.3l-13.1-21.5c2.2-0.3,4.3-0.5,6.3-0.5h0.1c0.1,0,6.6-0.1,13.6,4
		c1,2,2.3,4.7,3.8,7.7c2.7,5.5,6.1,12.5,7.1,15.3c0.3,0.9,1.2,3.5-2.1,6.9l-25.1,26.4L255.1,298.7L255.1,298.7z M340.4,298.7h-47.3
		l20.3-21.4c4.1-4.3,5.4-9.3,3.6-14.3c-1-2.9-3.6-8.4-6.4-14c8,3.7,20.3,7.1,45.1,9.1c3,0.2,3.8,1.3,4.4,4l1.1,10.7l-13,2.9
		c-4.3,0.9-7.8,3.7-9.4,7.8C337,288,337.6,293.4,340.4,298.7 M345.6,286.1c0.7-1.8,2.1-3,4-3.3l19.4-4.3l-1.8-17.3l-0.1-0.4
		c-0.5-2.3-1.9-9.2-10.9-9.9c-34.7-2.8-42.8-8-51.2-13.4c0,0,0-0.1-0.1-0.1h-0.1l-0.5-0.4c-9-5.8-18-5.9-18.9-5.8
		c-9.9,0-22.3,3.9-23.3,4.2c-3,0.9-5.8,1.8-8.5,2.7c-10.9,3.5-20.3,6.5-36.1,6.1l-2.9-0.1l-0.7,2.8c-0.5,2.1-5,19.6-0.7,30.8
		c-3.8,3-3.8,6.5-3.8,6.9c0.2,3.8-0.7,4.8-1,5.1c-1.8,1.9-7.8,2.1-13,2.1h-0.1h-1.8l-1.1,1.5c-3.2,4.3-9.9,5.4-14.3,4.3
		c-1.9-5.8-1.9-10.3-0.1-12.9c2.2-3.1,6.8-3.5,8.6-3.5h1.1c4.6,0,8.4-3.8,8.4-8.4v-31.3c1.4-2.2,2.6-4.7,3.5-7.5
		c7.6-1.2,13.4-7.7,13.4-15.4c0-3-0.9-5.8-2.5-8.3c7.1-3.4,13.1-10.3,13.1-19.4c0-9.1-4.6-13.3-8.9-16c1.2-3.5,3.2-9.6,4.6-15.8
		l6.1-21.8c2.7-8.6,9.9-14.1,18.2-14.1h107.4c-4.6,6.4-11,9.4-19.9,9.4h-65.1l-3.4,7.3h58.3c-4.6,7.3-11.3,10.7-20.8,10.7H258
		l-3.4,7.3h37.7c-4.6,7-11.2,10.3-20.6,10.3h-23l-3.4,7.3h24.1c0.2,0.3,0.9,1.4,0.9,4.4c0,4.7-4,8.5-8.8,8.5c-1.6,0-3.1-0.4-5.5-1.4
		c-1.1-0.4-2.1-0.9-3.2-1.3l-5.6,5c1,0.4,2.1,0.9,3.2,1.3l0,0c4.9,2.1,7.5,3.2,11.2,3.2c4.4,0,8.5-1.8,11.3-4.8
		c4.1,0.2,10.8,0.8,17.3,1.3c7.7,0.6,15,1.2,18.8,1.5c1.9,0.1,3.6,0.2,5.4,0.2c3.2,0.2,6.1,0.3,9.1,0.5
		c14.7,23.8,22.2,26.9,50.5,30.3c2.1,3.6,3.9,7.5,5.7,11.4v46.3v0.2c0.2,2.1,0.2,2.9-0.1,3.2c-1,1.3-5.4,3.1-6.9,3.8l-23.9,9
		C345.5,293.8,344.3,289.3,345.6,286.1"/>
	<polygon fill="#C52C27" points="148.6,240.3 125.6,234.4 125.6,241.9 148.6,247.9 	"/>
	<polygon fill="#C52C27" points="95.2,247.9 118.1,241.9 118.1,234.4 95.2,240.3 	"/>
	<polygon fill="#C52C27" points="95.2,263 118.1,257 118.1,249.5 95.2,255.4 	"/>
	<polygon fill="#C52C27" points="148.6,255.4 125.6,249.5 125.6,257 148.6,263 	"/>
	<polygon fill="#C52C27" points="148.6,270.6 125.6,264.6 125.6,272.1 148.6,278 	"/>
	<polygon fill="#C52C27" points="95.2,278 118.1,272.1 118.1,264.6 95.2,270.6 	"/>
</g>
</svg>
