<?xml version="1.0" encoding="UTF-8" standalone="no"?>
<svg width="28px" height="16px" viewBox="0 0 28 16" version="1.1" xmlns="http://www.w3.org/2000/svg" xmlns:xlink="http://www.w3.org/1999/xlink">
    <!-- Generator: Sketch 46.2 (44496) - http://www.bohemiancoding.com/sketch -->
    <title>Combined shape 30</title>
    <desc>Created with Sketch.</desc>
    <defs></defs>
    <g id="Page-1" stroke="none" stroke-width="1" fill="none" fill-rule="evenodd">
        <g id="Artboard" transform="translate(-130.000000, -650.000000)" fill="#8D8C8C">
            <g id="Sign-In" transform="translate(-1.000000, -1.000000)">
                <g id="Group-1" transform="translate(129.000000, 474.000000)">
                    <path d="M16.314122,182.837246 L29.041544,182.837246 L29.041544,187.835684 L26.581973,187.835684 L26.581973,192.83405 L21.662986,192.83405 L21.662986,187.835684 L16.314122,187.835684 C15.299244,190.74695 12.575553,192.83405 9.365596,192.83405 C5.289096,192.83405 1.987131,189.478796 1.987131,185.336474 C1.987131,181.194134 5.289096,177.83888 9.365596,177.83888 C12.575553,177.83888 15.299244,179.925656 16.314122,182.837246 Z M9.365596,187.835684 C10.724357,187.835684 11.82495,186.717326 11.82495,185.336474 C11.82495,183.95573 10.724357,182.837246 9.365596,182.837246 C8.006618,182.837246 6.906056,183.95573 6.906056,185.336474 C6.906056,186.717326 8.006618,187.835684 9.365596,187.835684 Z" id="Combined-shape-30"></path>
                </g>
            </g>
        </g>
    </g>
</svg>